<svg width="80" height="80" viewBox="0 0 80 80" fill="none" xmlns="http://www.w3.org/2000/svg">
<circle cx="40" cy="40" r="40" fill="white"/>
<path fill-rule="evenodd" clip-rule="evenodd" d="M52.7132 54H49.7995C48.8979 54 48.1662 53.2832 48.1662 52.4C48.1662 51.5168 48.8979 50.8 49.7995 50.8H50.5002C51.6304 50.8 52.465 49.6848 52.037 48.6592C50.0592 43.9168 45.4142 41.2 40 41.2C34.5858 41.2 29.9408 43.9168 27.963 48.6592C27.535 49.6848 28.3696 50.8 29.4998 50.8H30.2005C31.1021 50.8 31.8338 51.5168 31.8338 52.4C31.8338 53.2832 31.1021 54 30.2005 54H27.2868C25.2452 54 23.6381 52.1712 24.0709 50.2176C25.2599 44.8432 28.9723 40.8768 33.8622 39.0768C31.6312 37.3184 30.2005 34.624 30.2005 31.6C30.2005 25.9184 35.2374 21.3904 41.1743 22.0672C45.4763 22.5568 49.04 25.9152 49.6852 30.112C50.2405 33.7296 48.7297 37.0336 46.1378 39.0768C51.0277 40.8768 54.7401 44.8432 55.9291 50.2176C56.3619 52.1712 54.7548 54 52.7132 54" fill="black"/>
</svg>
